<svg xmlns="http://www.w3.org/2000/svg">
  <symbol id="logo" viewBox="0 0 34 85">
    <title>Лого</title>
    <path d="M31.4 10.3h-28.8c-1.4 0-2.6 1.2-2.6 2.6v33.5c0 .4.1.8.3 1.2.2.5.7 1.2 1.2 2.2 1 1.6 2.1 3.2 3.3 4.7 3.7 4.6 7.7 7.4 12.2 7.4 4.4 0 8.5-2.8 12.2-7.4 1.2-1.5 2.3-3.1 3.3-4.7.6-1 1-1.7 1.2-2.2.2-.4.3-.8.3-1.2v-33.5c0-1.4-1.2-2.6-2.6-2.6zm-17 45.7c-1.8-.9-3.6-2.5-5.5-4.8-1.1-1.3-2-2.7-2.9-4.1-.3-.5-.8-1.4-.8-1.4v-9.6h9.2v19.9zm0-25.1h-9.2v-15.4h9.2v15.4zm14.4 14.8s-.5.9-.8 1.4c-.9 1.4-1.8 2.8-2.9 4.1-1.9 2.3-3.7 3.9-5.5 4.8v-19.9h9.2v9.6zm0-14.8h-9.2v-15.4h9.2v15.4zm-11.8-23.2c1.4 0 2.6-1.2 2.6-2.6v-2.5c0-1.4-1.2-2.6-2.6-2.6-1.4 0-2.6 1.2-2.6 2.6v2.6c0 1.4 1.2 2.5 2.6 2.5zm0 56.7c-1.4 0-2.6 1.2-2.6 2.6v15.5c0 1.4 1.2 2.6 2.6 2.6 1.4 0 2.6-1.2 2.6-2.6v-15.5c0-1.5-1.2-2.6-2.6-2.6z"/>
  </symbol>
  <symbol id="i-shev" viewBox="0 0 6 4">
    <path d="M.8 0l2.2 2.4 2.2-2.4.8.8-3 3.2-3-3.2z"/>
  </symbol>
  <symbol id="i-star" viewBox="0 0 900 860.2">
    <path d="M560.1 317.6c382.7 16.9 366.8-30.8 67.6 207.7 101.4 367.8 141.1 338.9-176.9 129.2-321 211.7-279.3 242.5-177.9-129.2-300.2-239.5-316.1-190.8 68.6-207.7 133.2-356.8 84.5-356.8 218.6 0z"/>
  </symbol>
  <symbol id="i-up" viewBox="0 0 876 876">
    <path d="M438 0c-241.9 0-438 196.1-438 438s196.1 438 438 438 438-196.1 438-438-196.1-438-438-438zm196.2 534.6c-9.4 9.4-24.6 9.4-33.9 0l-162.3-162.3-162.2 162.3c-4.7 4.7-10.8 7-17 7-6.1 0-12.3-2.4-17-7-9.4-9.4-9.4-24.6 0-33.9l179.2-179.3c9.4-9.4 24.6-9.4 33.9 0l179.2 179.2c4.7 4.7 7 10.8 7 17 .1 6.2-2.3 12.3-6.9 17z"/>
  </symbol>
  <symbol id="i-check" viewBox="0 0 10.5 11.1">
    <path d="M.7 6.6l3 3 6-9"/>
  </symbol>
</svg>